nColumns=19
nRows=108
DataType=double
version=3
OpenSimVersion=4.1
endheader
time	ground_force_1_vx	ground_force_1_vy	ground_force_1_vz	ground_force_1_px	ground_force_1_py	ground_force_1_pz	ground_force_1_mx	ground_force_1_my	ground_force_1_mz	ground_force_2_vx	ground_force_2_vy	ground_force_2_vz	ground_force_2_px	ground_force_2_py	ground_force_2_pz	ground_force_2_mx	ground_force_2_my	ground_force_2_mz
1.625	0	0	0	-0.000766356	0	6.80204e-05	0	0	0	-8.66107	52.0786	-7.07566	1.01925	0	-0.274581	-0	0.016602	-0
1.63333	0	0	0	-0.000766358	0	6.80171e-05	0	0	0	-14.4516	132.73	-11.6139	1.01218	0	-0.287064	-0	1.14484	-0
1.64167	0	0	0	-0.000766359	0	6.80138e-05	0	0	0	-17.5585	290.661	-15.9114	1.00328	0	-0.288943	-0	0.849855	-0
1.65	0	0	0	-0.000766361	0	6.80105e-05	0	0	0	-23.701	534.267	-19.1807	0.994984	0	-0.287791	0	-1.52591	0
1.65833	0	0	0	-0.000766362	0	6.80073e-05	0	0	0	-43.9953	814.29	-21.6796	0.989558	0	-0.28573	0	-4.32022	0
1.66667	0	0	0	-0.000766364	0	6.8004e-05	0	0	0	-83.4774	1040.64	-25.0599	0.986546	0	-0.283791	0	-4.05987	0
1.675	0	0	0	-0.000766366	0	6.80007e-05	0	0	0	-134.669	1167.08	-30.7603	0.983878	0	-0.282886	-0	1.07936	-0
1.68333	0	0	0	-0.000766367	0	6.79975e-05	0	0	0	-177.533	1231.07	-36.7293	0.978161	0	-0.283515	-0	7.93696	-0
1.69167	0	0	0	-0.000766369	0	6.79943e-05	0	0	0	-197.39	1298.37	-37.099	0.966938	0	-0.2849	-0	9.9803	-0
1.7	0	0	0	-0.00076637	0	6.7991e-05	0	0	0	-197.081	1396.56	-27.9022	0.951878	0	-0.285679	-0	3.91336	-0
1.70833	0	0	0	-0.000766372	0	6.79878e-05	0	0	0	-185.417	1505.69	-12.8554	0.935679	0	-0.285917	0	-5.84615	0
1.71667	0	0	0	-0.000766374	0	6.79846e-05	0	0	0	-168.119	1593.28	-0.436281	0.919235	0	-0.28679	0	-11.179	0
1.725	0	0	0	-0.000766375	0	6.79814e-05	0	0	0	-146.532	1647.58	5.46592	0.902331	0	-0.288672	0	-8.96861	0
1.73333	0	0	0	-0.000766377	0	6.79782e-05	0	0	0	-120.768	1677.02	9.1541	0.884968	0	-0.290693	0	-4.00094	0
1.74167	0	0	0	-0.000766378	0	6.7975e-05	0	0	0	-92.5997	1689.67	16.1194	0.867577	0	-0.291926	0	-2.56263	0
1.75	0	0	0	-0.00076638	0	6.79719e-05	0	0	0	-63.3721	1683.36	25.3203	0.850241	0	-0.292582	0	-5.20198	0
1.75833	0	0	0	-0.000766381	0	6.79687e-05	0	0	0	-33.888	1650.6	31.1212	0.833041	0	-0.293661	0	-7.56657	0
1.76667	0	0	0	-0.000766383	0	6.79656e-05	0	0	0	-5.16784	1589.94	31.0335	0.816066	0	-0.295328	0	-6.88856	0
1.775	0	0	0	-0.000766385	0	6.79625e-05	0	0	0	21.5603	1509.02	27.8214	0.799227	0	-0.296632	0	-4.81611	0
1.78333	0	0	0	-0.000766386	0	6.79594e-05	0	0	0	47.8495	1415.86	24.1462	0.782156	0	-0.296827	0	-3.78006	0
1.79167	0	0	0	-0.000766388	0	6.79563e-05	0	0	0	76.7711	1311.74	18.7805	0.764024	0	-0.296277	0	-3.28563	0
1.8	0	0	0	-0.000766389	0	6.79532e-05	0	0	0	106.584	1194.1	9.63373	0.744382	0	-0.295827	0	-1.35587	0
1.80833	0	0	0	-0.000766391	0	6.79501e-05	0	0	0	132.01	1064.46	-1.88422	0.723796	0	-0.295607	-0	1.8806	-0
1.81667	0	0	0	-0.000766392	0	6.79471e-05	0	0	0	149.043	928.717	-11.8218	0.703428	0	-0.294871	-0	4.08265	-0
1.825	0	0	0	-0.000766394	0	6.79441e-05	0	0	0	157.137	792.391	-18.0696	0.683954	0	-0.293125	-0	3.8975	-0
1.83333	0	0	0	-0.000766395	0	6.79411e-05	0	0	0	156.123	658.422	-21.7093	0.665408	0	-0.29103	-0	2.57403	-0
1.84167	0	0	0	-0.000766397	0	6.79381e-05	0	0	0	144.774	528.777	-24.095	0.647814	0	-0.289688	-0	1.93274	-0
1.85	0	0	0	-0.000766398	0	6.79351e-05	0	0	0	124.515	408.023	-24.5155	0.631664	0	-0.2892	-0	1.92831	-0
1.85833	0	0	0	-0.0007664	0	6.79321e-05	0	0	0	100.297	301.847	-21.5539	0.61814	0	-0.288489	-0	1.10623	-0
1.86667	0	0	0	-0.000766401	0	6.79292e-05	0	0	0	77.1452	212.733	-15.6305	0.608683	0	-0.286308	0	-1.11352	0
1.875	0	0	0	-0.000766402	0	6.79263e-05	0	0	0	56.8243	140.297	-9.12293	0.605535	0	-0.282324	0	-3.57497	0
1.88333	0	0	0	-0.000766404	0	6.79234e-05	0	0	0	38.9635	84.3762	-4.22761	0.612961	0	-0.277359	0	-4.78123	0
1.89167	0	0	0	-0.000766405	0	6.79205e-05	0	0	0	23.9508	45.4181	-1.43444	0.631083	0	-0.269799	0	-4.42181	0
1.9	0	0	0	-0.000766407	0	6.79176e-05	0	0	0	12.5658	22.2151	-0.0580668	0.654094	0	-0.247498	0	-3.26049	0
1.90833	0	0	0	-0.000766408	0	6.79148e-05	0	0	0	5.57449	10.9085	0.529715	-0.000766333	0	6.77888e-05	0	0	0
1.91667	0	0	0	-0.000766409	0	6.7912e-05	0	0	0	0	0	0	-0.000766334	0	6.77851e-05	0	0	0
1.925	0	0	0	-0.000766411	0	6.79092e-05	0	0	0	0	0	0	-0.000766335	0	6.77814e-05	0	0	0
1.93333	0	0	0	-0.000766412	0	6.79064e-05	0	0	0	0	0	0	-0.000766336	0	6.77778e-05	0	0	0
1.94167	0	0	0	-0.000766414	0	6.79037e-05	0	0	0	0	0	0	-0.000766336	0	6.77742e-05	0	0	0
1.95	0	0	0	-0.000766415	0	6.7901e-05	0	0	0	0	0	0	-0.000766337	0	6.77706e-05	0	0	0
1.95833	0	0	0	-0.000766416	0	6.78983e-05	0	0	0	0	0	0	-0.000766338	0	6.77671e-05	0	0	0
1.96667	0	0	0	-0.000766418	0	6.78956e-05	0	0	0	0	0	0	-0.000766339	0	6.77636e-05	0	0	0
1.975	0	0	0	-0.000766419	0	6.7893e-05	0	0	0	0	0	0	-0.00076634	0	6.77601e-05	0	0	0
1.98333	0	0	0	-0.00076642	0	6.78903e-05	0	0	0	0	0	0	-0.00076634	0	6.77566e-05	0	0	0
1.99167	-3.13682	14.6765	0.878394	-0.000766421	0	6.78877e-05	0	0	0	0	0	0	-0.000766341	0	6.77532e-05	0	0	0
2	-6.73042	35.3629	-0.340429	1.00892	0	-0.197089	0	-2.04007	0	0	0	0	-0.000766342	0	6.77499e-05	0	0	0
2.00833	-8.76446	89.3327	-1.72642	1.00052	0	-0.222465	0	-0.45821	0	0	0	0	-0.000766343	0	6.77465e-05	0	0	0
2.01667	-3.82337	203.528	-3.10918	0.993417	0	-0.232265	-0	2.10996	-0	0	0	0	-0.000766344	0	6.77432e-05	0	0	0
2.025	6.30554	393.105	-3.74698	0.984638	0	-0.238064	-0	3.84543	-0	0	0	0	-0.000766344	0	6.77399e-05	0	0	0
2.03333	8.37791	632.828	-1.98161	0.977225	0	-0.241893	-0	2.30762	-0	0	0	0	-0.000766345	0	6.77367e-05	0	0	0
2.04167	-12.3015	856.813	2.80356	0.972531	0	-0.243934	0	-2.7865	0	0	0	0	-0.000766346	0	6.77335e-05	0	0	0
2.05	-58.5934	1013.88	7.66132	0.969417	0	-0.244851	0	-8.03657	0	0	0	0	-0.000766347	0	6.77304e-05	0	0	0
2.05833	-115.252	1118.86	7.73106	0.96534	0	-0.245708	0	-9.09604	0	0	0	0	-0.000766347	0	6.77272e-05	0	0	0
2.06667	-158.668	1224.71	1.6714	0.957552	0	-0.246924	0	-5.43193	0	0	0	0	-0.000766348	0	6.77242e-05	0	0	0
2.075	-174.779	1357.1	-6.40643	0.945127	0	-0.247843	0	-1.10043	0	0	0	0	-0.000766349	0	6.77211e-05	0	0	0
2.08333	-166.916	1498.92	-12.0543	0.929537	0	-0.247856	-0	0.052994	-0	0	0	0	-0.000766349	0	6.77181e-05	0	0	0
2.09167	-147.003	1619.06	-15.8526	0.912844	0	-0.247335	0	-1.22908	0	0	0	0	-0.00076635	0	6.77152e-05	0	0	0
2.1	-121.729	1699.58	-21.4163	0.895913	0	-0.246994	0	-1.37227	0	0	0	0	-0.000766351	0	6.77122e-05	0	0	0
2.10833	-94.4331	1740.34	-29.2516	0.879025	0	-0.246945	-0	0.848284	-0	0	0	0	-0.000766351	0	6.77094e-05	0	0	0
2.11667	-66.8447	1749.2	-35.6465	0.862272	0	-0.246702	-0	2.9611	-0	0	0	0	-0.000766352	0	6.77065e-05	0	0	0
2.125	-39.2851	1732.7	-37.8536	0.845495	0	-0.245981	-0	2.70415	-0	0	0	0	-0.000766353	0	6.77037e-05	0	0	0
2.13333	-11.6541	1690.8	-37.3991	0.828934	0	-0.245179	-0	1.15829	-0	0	0	0	-0.000766353	0	6.7701e-05	0	0	0
2.14167	15.3814	1621.22	-36.8061	0.812763	0	-0.24488	-0	0.800604	-0	0	0	0	-0.000766354	0	6.76982e-05	0	0	0
2.15	40.6018	1527.35	-35.2867	0.796621	0	-0.245149	-0	1.80825	-0	0	0	0	-0.000766355	0	6.76956e-05	0	0	0
2.15833	66.2049	1419.21	-29.8852	0.779815	0	-0.245584	-0	1.98215	-0	0	0	0	-0.000766355	0	6.76929e-05	0	0	0
2.16667	95.2588	1304.17	-19.8375	0.761788	0	-0.246085	0	-0.082204	0	0	0	0	-0.000766356	0	6.76904e-05	0	0	0
2.175	124.935	1181.25	-7.69053	0.742601	0	-0.247051	0	-3.29045	0	0	0	0	-0.000766357	0	6.76878e-05	0	0	0
2.18333	149.097	1048.9	3.65103	0.722839	0	-0.248658	0	-5.70457	0	0	0	0	-0.000766357	0	6.76853e-05	0	0	0
2.19167	164.682	911.062	13.1949	0.703117	0	-0.250505	0	-6.70551	0	0	0	0	-0.000766358	0	6.76829e-05	0	0	0
2.2	172.259	774.584	20.9787	0.683505	0	-0.251987	0	-6.92481	0	0	0	0	-0.000766358	0	6.76805e-05	0	0	0
2.20833	170.944	644.577	26.4367	0.664342	0	-0.252785	0	-6.80876	0	0	0	0	-0.000766359	0	6.76781e-05	0	0	0
2.21667	158.285	523.303	28.5728	0.646769	0	-0.253046	0	-6.11651	0	0	0	0	-0.000766359	0	6.76758e-05	0	0	0
2.225	135.687	412.062	27.2418	0.631506	0	-0.252888	0	-4.68208	0	0	0	0	-0.00076636	0	6.76735e-05	0	0	0
2.23333	109.144	312.749	23.481	0.618828	0	-0.251677	0	-2.95786	0	0	0	0	-0.00076636	0	6.76713e-05	0	0	0
2.24167	84.774	226.642	18.5964	0.609604	0	-0.247944	0	-1.56666	0	0	0	0	-0.000766361	0	6.76692e-05	0	0	0
2.25	63.8162	153.882	13.3882	0.60616	0	-0.240466	0	-0.694951	0	0	0	0	-0.000766361	0	6.7667e-05	0	0	0
2.25833	45.1034	95.6391	8.38243	0.611249	0	-0.228721	0	-0.232467	0	0	0	0	-0.000766362	0	6.7665e-05	0	0	0
2.26667	28.854	53.7897	4.35428	0.626292	0	-0.211031	0	-0.276968	0	0	0	0	-0.000766362	0	6.76629e-05	0	0	0
2.275	16.1491	27.9796	2.09079	0.659167	0	-0.181528	0	-1.05785	0	0	0	0	-0.000766363	0	6.7661e-05	0	0	0
2.28333	7.81517	14.7672	1.57935	-0.000766457	0	6.7816e-05	0	0	0	0	0	0	-0.000766363	0	6.7659e-05	0	0	0
2.29167	0	0	0	-0.000766457	0	6.78146e-05	0	0	0	0	0	0	-0.000766364	0	6.76571e-05	0	0	0
2.3	0	0	0	-0.000766458	0	6.78132e-05	0	0	0	0	0	0	-0.000766364	0	6.76553e-05	0	0	0
2.30833	0	0	0	-0.000766459	0	6.78118e-05	0	0	0	0	0	0	-0.000766365	0	6.76535e-05	0	0	0
2.31667	0	0	0	-0.000766459	0	6.78105e-05	0	0	0	0	0	0	-0.000766365	0	6.76518e-05	0	0	0
2.325	0	0	0	-0.00076646	0	6.78092e-05	0	0	0	0	0	0	-0.000766365	0	6.76501e-05	0	0	0
2.33333	0	0	0	-0.000766461	0	6.7808e-05	0	0	0	0	0	0	-0.000766366	0	6.76485e-05	0	0	0
2.34167	0	0	0	-0.000766461	0	6.78068e-05	0	0	0	0	0	0	-0.000766366	0	6.76469e-05	0	0	0
2.35	0	0	0	-0.000766462	0	6.78056e-05	0	0	0	0	0	0	-0.000766366	0	6.76454e-05	0	0	0
2.35833	0	0	0	-0.000766462	0	6.78045e-05	0	0	0	0	0	0	-0.000766367	0	6.76439e-05	0	0	0
2.36667	0	0	0	-0.000766463	0	6.78034e-05	0	0	0	-1.69538	16.3018	-0.703183	1.06322	0	-0.208368	0	-1.96282	0
2.375	0	0	0	-0.000766463	0	6.78024e-05	0	0	0	-5.76148	44.7633	-2.51472	1.03293	0	-0.279967	-0	0.173462	-0
2.38333	0	0	0	-0.000766464	0	6.78014e-05	0	0	0	-10.5973	115.338	-4.31674	1.02762	0	-0.302489	-0	1.57858	-0
2.39167	0	0	0	-0.000766464	0	6.78004e-05	0	0	0	-14.6478	256.379	-5.05471	1.02134	0	-0.307127	-0	0.189764	-0
2.4	0	0	0	-0.000766465	0	6.77995e-05	0	0	0	-22.5417	480.993	-4.46714	1.01425	0	-0.306138	0	-4.33161	0
2.40833	0	0	0	-0.000766465	0	6.77986e-05	0	0	0	-42.6643	752.01	-4.25747	1.00916	0	-0.303533	0	-8.91752	0
2.41667	0	0	0	-0.000766466	0	6.77977e-05	0	0	0	-78.4004	984.668	-7.63126	1.00556	0	-0.30108	0	-8.69064	0
2.425	0	0	0	-0.000766466	0	6.77969e-05	0	0	0	-125.537	1124.25	-16.302	1.00153	0	-0.299846	0	-1.75653	0
2.43333	0	0	0	-0.000766467	0	6.77962e-05	0	0	0	-171.027	1199.94	-26.8212	0.995118	0	-0.300129	-0	7.29768	-0
2.44167	0	0	0	-0.000766467	0	6.77954e-05	0	0	0	-200.299	1277.28	-31.3432	0.984849	0	-0.300881	-0	10.3112	-0
2.45	0	0	0	-0.000766467	0	6.77948e-05	0	0	0	-208.848	1384.86	-24.8041	0.971267	0	-0.300755	-0	3.61618	-0
2.45833	0	0	0	-0.000766468	0	6.77941e-05	0	0	0	-200.51	1501.31	-11.1845	0.955878	0	-0.300166	0	-7.31727	0
2.46667	0	0	0	-0.000766468	0	6.77935e-05	0	0	0	-182.344	1593.6	0.123115	0.939657	0	-0.30052	0	-13.0347	0
2.475	0	0	0	-0.000766468	0	6.7793e-05	0	0	0	-159.328	1651.4	4.65081	0.923023	0	-0.30212	0	-9.99516	0
2.48333	0	0	0	-0.000766468	0	6.77924e-05	0	0	0	-133.42	1684.66	6.85624	0.906079	0	-0.303911	0	-3.6529	0
2.49167	0	0	0	-0.000766469	0	6.7792e-05	0	0	0	-106.585	1700.81	12.786	0.88917	0	-0.304949	0	-1.27924	0
2.5	0	0	0	-0.000766469	0	6.77915e-05	0	0	0	-79.6692	1696.77	21.7169	0.872306	0	-0.305513	0	-3.86086	0
2.50833	0	0	0	-0.000766469	0	6.77911e-05	0	0	0	-52.2128	1666.43	27.8141	0.855409	0	-0.306613	0	-6.78315	0
2.51667	0	0	0	-0.000766469	0	6.77908e-05	0	0	0	-24.1258	1609.39	28.2403	0.838609	0	-0.308466	0	-6.8389	0
